<svg width="681" height="131" viewBox="0 0 681 131" fill="none" xmlns="http://www.w3.org/2000/svg">
<g clip-path="url(#clip0_1023_106)">
<path d="M73.8043 6.7268H37.0249L0.245476 43.5062V80.2856H37.0249V43.5062H73.8043V6.7268Z" fill="white"/>
<path d="M44.2303 124.273H81.0098L117.789 87.4938V50.7144H81.0098V87.4938H44.2303V124.273Z" fill="white"/>
</g>
<path d="M163.678 36.1087H178.868V99.4323H163.678V36.1087ZM171.283 0.280273C176.722 0.280273 181.273 4.95095 181.273 10.1206C181.273 15.5498 176.722 19.961 171.283 19.961C165.834 19.961 161.403 15.5498 161.403 10.1206C161.403 4.69147 166.093 0.280273 171.283 0.280273Z" fill="white"/>
<path d="M190.205 99.4322V36.1086H205.395V53.3941C207.421 39.8911 216.533 34.0927 227.042 34.0927C238.559 34.0927 247.551 40.2703 247.551 58.5638V99.4322H232.361V61.3383C232.361 47.2065 226.533 43.3043 219.577 43.3043C212.61 43.3043 205.395 47.5857 205.395 61.468V99.4322" fill="white"/>
<path d="M256.413 67.5159C256.413 46.957 272.241 34.0927 290.215 34.0927C305.146 34.0927 315.525 41.2783 315.525 48.8532C315.525 53.2644 312.361 55.9091 308.688 55.9091C303.758 55.9091 301.223 53.1346 299.836 48.4739C298.439 43.3043 296.034 38.7533 288.309 38.7533C279.078 38.7533 271.992 46.7075 271.992 61.967C271.992 80.1407 281.223 91.2386 295.146 91.2386C303.758 91.2386 311.732 87.4561 315.146 74.3323H319.826C316.663 92.4961 306.164 101.079 289.327 101.079C269.078 101.079 256.413 86.8274 256.413 67.5159Z" fill="white"/>
<path d="M341.034 55.6596H371.413C371.024 43.0448 364.318 38.6336 356.982 38.6336C348.878 38.6336 342.681 44.1825 341.034 55.6596ZM325.086 67.5159C325.086 46.957 341.034 34.0927 357.362 34.0927C373.689 34.0927 385.715 43.1745 388.37 61.3383H340.655V61.468C340.655 80.1407 350.146 91.2386 363.819 91.2386C372.421 91.2386 381.404 87.7056 384.697 75.0908H389.507C386.344 92.3763 375.076 101.079 357.99 101.079C337.741 101.079 325.086 86.8274 325.086 67.5159Z" fill="white"/>
<path d="M413.809 46.7075V88.4641C417.861 92.3763 422.422 93.8833 427.102 93.8833C439.128 93.8833 446.843 82.6557 446.843 67.5159C446.843 52.3861 439.128 41.2783 427.102 41.2783C422.422 41.2783 417.741 42.7953 413.809 46.7075ZM398.619 36.1086H413.809V44.941C417.741 38.3841 424.318 34.0927 433.809 34.0927C451.404 34.0927 463.43 48.0947 463.43 67.5159C463.43 86.9471 451.404 101.079 433.809 101.079C424.318 101.079 417.741 96.7875 413.809 90.2306V130.72H398.619" fill="white"/>
<path d="M476.773 83.7934V44.1825H463.859V36.1086H476.773V23.374L491.963 16.3081V36.1086H514.368V44.1825H491.963V84.0529C491.963 92.1168 495.256 94.1427 503.35 94.1427C505.376 94.1427 510.186 93.8832 512.342 93.504V98.6837C507.272 99.6917 498.669 101.079 492.592 101.079C481.584 101.079 476.773 97.2964 476.773 83.7934Z" fill="white"/>
<path d="M522.292 36.1087H537.482V99.4323H522.292V36.1087ZM529.887 0.280273C535.326 0.280273 539.887 4.95095 539.887 10.1206C539.887 15.5498 535.326 19.961 529.887 19.961C524.438 19.961 520.007 15.5498 520.007 10.1206C520.007 4.69147 524.697 0.280273 529.887 0.280273Z" fill="white"/>
<path d="M597.442 72.6956C597.442 57.9351 591.744 39.2623 578.959 39.2623C570.227 39.2623 562.502 45.949 562.502 62.476C562.502 77.2365 568.201 95.9092 581.115 95.9092C589.847 95.9092 597.442 89.2226 597.442 72.6956ZM545.925 67.5259C545.925 47.965 560.097 34.0927 579.977 34.0927C599.847 34.0927 614.149 47.965 614.149 67.5259C614.149 87.0769 599.847 101.079 579.977 101.079C560.097 101.079 545.925 87.0769 545.925 67.5259Z" fill="white"/>
<path d="M623.42 99.4322V36.1086H638.61V53.3941C640.636 39.8911 649.748 34.0927 660.257 34.0927C671.774 34.0927 680.756 40.2703 680.756 58.5638V99.4322H665.566V61.3383C665.566 47.2065 659.748 43.3043 652.792 43.3043C645.825 43.3043 638.61 47.5857 638.61 61.468V99.4322" fill="white"/>
<defs>
<clipPath id="clip0_1023_106">
<rect width="117.546" height="117.546" fill="white" transform="translate(0.244385 6.72687)"/>
</clipPath>
</defs>
</svg>
